<svg xmlns="http://www.w3.org/2000/svg" width="1200" height="600" viewBox="0 0 1200 600"><rect x="0" y="0" width="1200" height="600" fill="rgb(255,255,255)"></rect><circle cx="115" cy="115" r="115" class="all-problem" fill="gray"></circle><path d="M115,0A115,115,0,1,0,-115,0A115,115,0,1,0,115,0Z" fill="rgb(50,205,50)" transform="translate(115, 115)"></path><circle cx="115" cy="115" r="76.66666666666667" fill="white"></circle><text x="115" y="115" text-anchor="middle" dominant-baseline="middle" font-size="20px">AC: 369 / 369</text><text x="115" y="265" text-anchor="middle" dominant-baseline="middle" font-size="20px">Problem A</text><circle cx="415" cy="115" r="115" class="all-problem" fill="gray"></circle><path d="M115,0A115,115,0,0,0,-80.79638623998366,-81.83485791861179L0,0Z" fill="rgb(50,205,50)" transform="translate(415, 115)"></path><circle cx="415" cy="115" r="76.66666666666667" fill="white"></circle><text x="415" y="115" text-anchor="middle" dominant-baseline="middle" font-size="20px">AC: 138 / 369</text><text x="415" y="265" text-anchor="middle" dominant-baseline="middle" font-size="20px">Problem B</text><circle cx="715" cy="115" r="115" class="all-problem" fill="gray"></circle><path d="M115,0A115,115,0,0,0,88.09511095868247,-73.92057511395201L0,0Z" fill="rgb(50,205,50)" transform="translate(715, 115)"></path><circle cx="715" cy="115" r="76.66666666666667" fill="white"></circle><text x="715" y="115" text-anchor="middle" dominant-baseline="middle" font-size="20px">AC: 41 / 369</text><text x="715" y="265" text-anchor="middle" dominant-baseline="middle" font-size="20px">Problem C</text><circle cx="1015" cy="115" r="115" class="all-problem" fill="gray"></circle><path d="M115,0A115,115,0,0,0,113.65224873474008,-17.554667685170553L0,0Z" fill="rgb(50,205,50)" transform="translate(1015, 115)"></path><circle cx="1015" cy="115" r="76.66666666666667" fill="white"></circle><text x="1015" y="115" text-anchor="middle" dominant-baseline="middle" font-size="20px">AC: 9 / 369</text><text x="1015" y="265" text-anchor="middle" dominant-baseline="middle" font-size="20px">Problem D</text><circle cx="115" cy="415" r="115" class="all-problem" fill="gray"></circle><path d="M115,0A115,115,0,0,0,114.84752033675551,-5.920056798589861L0,0Z" fill="rgb(50,205,50)" transform="translate(115, 415)"></path><circle cx="115" cy="415" r="76.66666666666667" fill="white"></circle><text x="115" y="415" text-anchor="middle" dominant-baseline="middle" font-size="20px">AC: 2 / 244</text><text x="115" y="565" text-anchor="middle" dominant-baseline="middle" font-size="20px">Problem E</text><circle cx="415" cy="415" r="115" class="all-problem" fill="gray"></circle><path d="M115,0A115,115,0,0,0,114.961873764146,-2.9610100703236886L0,0Z" fill="rgb(50,205,50)" transform="translate(415, 415)"></path><circle cx="415" cy="415" r="76.66666666666667" fill="white"></circle><text x="415" y="415" text-anchor="middle" dominant-baseline="middle" font-size="20px">AC: 1 / 244</text><text x="415" y="565" text-anchor="middle" dominant-baseline="middle" font-size="20px">Problem F</text><circle cx="715" cy="415" r="115" class="all-problem" fill="gray"></circle><path d="M115,0L0,0Z" fill="rgb(50,205,50)" transform="translate(715, 415)"></path><circle cx="715" cy="415" r="76.66666666666667" fill="white"></circle><text x="715" y="415" text-anchor="middle" dominant-baseline="middle" font-size="20px">AC: 0 / 158</text><text x="715" y="565" text-anchor="middle" dominant-baseline="middle" font-size="20px">Problem G</text><circle cx="1015" cy="415" r="115" class="all-problem" fill="gray"></circle><path d="M115,0L0,0Z" fill="rgb(50,205,50)" transform="translate(1015, 415)"></path><circle cx="1015" cy="415" r="76.66666666666667" fill="white"></circle><text x="1015" y="415" text-anchor="middle" dominant-baseline="middle" font-size="20px">AC: 0 / 106</text><text x="1015" y="565" text-anchor="middle" dominant-baseline="middle" font-size="20px">Problem H_Ex</text></svg>