<svg xmlns="http://www.w3.org/2000/svg" width="500" height="300" viewBox="0 0 500 300"><rect x="0" y="0" width="500" height="300" fill="rgb(255,255,255)"></rect><text x="50" y="30" text-anchor="middle" font-size="20px">7級</text><text x="200" y="30" text-anchor="end" font-size="17px" fill="rgb(122,62,0)">Ishi_eenn</text><rect x="40" y="50" width="430" height="220" stroke="rgb(155,155,155)" fill="rgb(216,216,216)"></rect><rect x="40" y="172.22222222222223" width="430" height="97.77777777777777" fill="rgb(216,216,216)"></rect><rect x="40" y="74.44444444444446" width="430" height="97.77777777777777" fill="rgb(215,197,178)"></rect><rect x="40" y="50" width="430" height="24.444444444444457" fill="rgb(188,216,184)"></rect><g class="y-axis" transform="translate(40, 0)" fill="none" font-size="10" font-family="sans-serif" text-anchor="end"><path class="domain" stroke="rgb(155,155,155)" d="M0.5,270.5V50.5"></path><g class="tick" opacity="1" transform="translate(0,270.5)"><line stroke="currentColor" x2="0"></line><text fill="currentColor" x="-3" dy="0.32em">0</text><line class="y-grid-line" stroke="rgb(230,230,230)" x1="0" x2="430" y1="0" y2="0"></line></g><g class="tick" opacity="1" transform="translate(0,172.72222222222223)"><line stroke="currentColor" x2="0"></line><text fill="currentColor" x="-3" dy="0.32em">400</text><line class="y-grid-line" stroke="rgb(230,230,230)" x1="0" x2="430" y1="0" y2="0"></line></g><g class="tick" opacity="1" transform="translate(0,74.94444444444446)"><line stroke="currentColor" x2="0"></line><text fill="currentColor" x="-3" dy="0.32em">800</text><line class="y-grid-line" stroke="rgb(230,230,230)" x1="0" x2="430" y1="0" y2="0"></line></g></g><g class="x-axis" transform="translate(0,270)" fill="none" font-size="10" font-family="sans-serif" text-anchor="middle"><path class="domain" stroke="rgb(155,155,155)" d="M40.5,0.5H470.5"></path><g class="tick" opacity="1" transform="translate(68.98343585800333,0)"><line stroke="currentColor" y2="0"></line><text fill="currentColor" y="3" dy="0.71em">Jul</text><line class="grid-line" stroke="rgb(230,230,230)" x1="0" x2="0" y1="0" y2="-220"></line></g><g class="tick" opacity="1" transform="translate(160.2406446238626,0)"><line stroke="currentColor" y2="0"></line><text fill="currentColor" y="3" dy="0.71em">Jan/2023</text><line class="grid-line" stroke="rgb(230,230,230)" x1="0" x2="0" y1="0" y2="-220"></line></g><g class="tick" opacity="1" transform="translate(250.00996411636552,0)"><line stroke="currentColor" y2="0"></line><text fill="currentColor" y="3" dy="0.71em">Jul</text><line class="grid-line" stroke="rgb(230,230,230)" x1="0" x2="0" y1="0" y2="-220"></line></g><g class="tick" opacity="1" transform="translate(341.2671728822248,0)"><line stroke="currentColor" y2="0"></line><text fill="currentColor" y="3" dy="0.71em">Jan/2024</text><line class="grid-line" stroke="rgb(230,230,230)" x1="0" x2="0" y1="0" y2="-220"></line></g><g class="tick" opacity="1" transform="translate(431.53245546584645,0)"><line stroke="currentColor" y2="0"></line><text fill="currentColor" y="3" dy="0.71em">Jul</text><line class="grid-line" stroke="rgb(230,230,230)" x1="0" x2="0" y1="0" y2="-220"></line></g></g><path fill="none" stroke="rgb(180, 180, 180)" stroke-width="2" d="M55.37485582468281,267.55555555555554L58.846597462514424,264.1333333333333L62.31833910034602,258.75555555555553L65.79008073817762,251.66666666666666L69.26182237600923,243.6L72.73356401384083,230.15555555555554L76.70126874279123,217.44444444444446L79.67704728950403,216.46666666666664L86.62053056516724,210.84444444444443L100.50749711649365,207.91111111111113L107.45098039215685,211.82222222222222L152.5836216839677,207.17777777777778L162.99884659746252,208.15555555555554L204.65974625144176,210.35555555555555L440.7381776239908,180.53333333333333L444.20991926182245,158.77777777777777L447.68166089965393,148.51111111111112L451.1534025374856,134.0888888888889L454.62514417531713,123.08888888888887"></path><g><circle cx="55.37485582468281" cy="267.55555555555554" r="4" fill="rgb(123,123,123)" stroke="rgb(255,255,255)" stroke-width="1"></circle><circle cx="58.846597462514424" cy="264.1333333333333" r="4" fill="rgb(123,123,123)" stroke="rgb(255,255,255)" stroke-width="1"></circle><circle cx="62.31833910034602" cy="258.75555555555553" r="4" fill="rgb(123,123,123)" stroke="rgb(255,255,255)" stroke-width="1"></circle><circle cx="65.79008073817762" cy="251.66666666666666" r="4" fill="rgb(123,123,123)" stroke="rgb(255,255,255)" stroke-width="1"></circle><circle cx="69.26182237600923" cy="243.6" r="4" fill="rgb(123,123,123)" stroke="rgb(255,255,255)" stroke-width="1"></circle><circle cx="72.73356401384083" cy="230.15555555555554" r="4" fill="rgb(123,123,123)" stroke="rgb(255,255,255)" stroke-width="1"></circle><circle cx="76.70126874279123" cy="217.44444444444446" r="4" fill="rgb(123,123,123)" stroke="rgb(255,255,255)" stroke-width="1"></circle><circle cx="79.67704728950403" cy="216.46666666666664" r="4" fill="rgb(123,123,123)" stroke="rgb(255,255,255)" stroke-width="1"></circle><circle cx="86.62053056516724" cy="210.84444444444443" r="4" fill="rgb(123,123,123)" stroke="rgb(255,255,255)" stroke-width="1"></circle><circle cx="100.50749711649365" cy="207.91111111111113" r="4" fill="rgb(123,123,123)" stroke="rgb(255,255,255)" stroke-width="1"></circle><circle cx="107.45098039215685" cy="211.82222222222222" r="4" fill="rgb(123,123,123)" stroke="rgb(255,255,255)" stroke-width="1"></circle><circle cx="152.5836216839677" cy="207.17777777777778" r="4" fill="rgb(123,123,123)" stroke="rgb(255,255,255)" stroke-width="1"></circle><circle cx="162.99884659746252" cy="208.15555555555554" r="4" fill="rgb(123,123,123)" stroke="rgb(255,255,255)" stroke-width="1"></circle><circle cx="204.65974625144176" cy="210.35555555555555" r="4" fill="rgb(123,123,123)" stroke="rgb(255,255,255)" stroke-width="1"></circle><circle cx="440.7381776239908" cy="180.53333333333333" r="4" fill="rgb(123,123,123)" stroke="rgb(255,255,255)" stroke-width="1"></circle><circle cx="444.20991926182245" cy="158.77777777777777" r="4" fill="rgb(122,62,0)" stroke="rgb(255,255,255)" stroke-width="1"></circle><circle cx="447.68166089965393" cy="148.51111111111112" r="4" fill="rgb(122,62,0)" stroke="rgb(255,255,255)" stroke-width="1"></circle><circle cx="451.1534025374856" cy="134.0888888888889" r="4" fill="rgb(122,62,0)" stroke="rgb(255,255,255)" stroke-width="1"></circle><circle cx="454.62514417531713" cy="123.08888888888887" r="4" fill="rgb(122,62,0)" stroke="rgb(255,255,255)" stroke-width="1"></circle></g></svg>