<svg xmlns="http://www.w3.org/2000/svg" width="500" height="300" viewBox="0 0 500 300"><rect x="0" y="0" width="500" height="300" fill="rgb(255,255,255)"></rect><text x="50" y="30" text-anchor="middle" font-size="20px">5級</text><text x="200" y="30" text-anchor="end" font-size="17px" fill="rgb(15,108,8)">Ishi_eenn</text><rect x="40" y="50" width="430" height="220" stroke="rgb(155,155,155)" fill="rgb(216,216,216)"></rect><rect x="40" y="202.3076923076923" width="430" height="67.69230769230771" fill="rgb(216,216,216)"></rect><rect x="40" y="134.6153846153846" width="430" height="67.69230769230768" fill="rgb(215,197,178)"></rect><rect x="40" y="66.9230769230769" width="430" height="67.69230769230771" fill="rgb(188,216,184)"></rect><rect x="40" y="50" width="430" height="16.923076923076906" fill="rgb(196,236,236)"></rect><g class="y-axis" transform="translate(40, 0)" fill="none" font-size="10" font-family="sans-serif" text-anchor="end"><path class="domain" stroke="rgb(155,155,155)" d="M0.5,270.5V50.5"></path><g class="tick" opacity="1" transform="translate(0,270.5)"><line stroke="currentColor" x2="0"></line><text fill="currentColor" x="-3" dy="0.32em">0</text><line class="y-grid-line" stroke="rgb(230,230,230)" x1="0" x2="430" y1="0" y2="0"></line></g><g class="tick" opacity="1" transform="translate(0,202.8076923076923)"><line stroke="currentColor" x2="0"></line><text fill="currentColor" x="-3" dy="0.32em">400</text><line class="y-grid-line" stroke="rgb(230,230,230)" x1="0" x2="430" y1="0" y2="0"></line></g><g class="tick" opacity="1" transform="translate(0,135.1153846153846)"><line stroke="currentColor" x2="0"></line><text fill="currentColor" x="-3" dy="0.32em">800</text><line class="y-grid-line" stroke="rgb(230,230,230)" x1="0" x2="430" y1="0" y2="0"></line></g><g class="tick" opacity="1" transform="translate(0,67.4230769230769)"><line stroke="currentColor" x2="0"></line><text fill="currentColor" x="-3" dy="0.32em">1,200</text><line class="y-grid-line" stroke="rgb(230,230,230)" x1="0" x2="430" y1="0" y2="0"></line></g></g><g class="x-axis" transform="translate(0,270)" fill="none" font-size="10" font-family="sans-serif" text-anchor="middle"><path class="domain" stroke="rgb(155,155,155)" d="M40.5,0.5H470.5"></path><g class="tick" opacity="1" transform="translate(66.3047428306049,0)"><line stroke="currentColor" y2="0"></line><text fill="currentColor" y="3" dy="0.71em">Jul</text><line class="grid-line" stroke="rgb(230,230,230)" x1="0" x2="0" y1="0" y2="-220"></line></g><g class="tick" opacity="1" transform="translate(148.97976895390687,0)"><line stroke="currentColor" y2="0"></line><text fill="currentColor" y="3" dy="0.71em">Jan/2023</text><line class="grid-line" stroke="rgb(230,230,230)" x1="0" x2="0" y1="0" y2="-220"></line></g><g class="tick" opacity="1" transform="translate(230.30683269476373,0)"><line stroke="currentColor" y2="0"></line><text fill="currentColor" y="3" dy="0.71em">Jul</text><line class="grid-line" stroke="rgb(230,230,230)" x1="0" x2="0" y1="0" y2="-220"></line></g><g class="tick" opacity="1" transform="translate(312.98185881806575,0)"><line stroke="currentColor" y2="0"></line><text fill="currentColor" y="3" dy="0.71em">Jan/2024</text><line class="grid-line" stroke="rgb(230,230,230)" x1="0" x2="0" y1="0" y2="-220"></line></g><g class="tick" opacity="1" transform="translate(394.75824335307095,0)"><line stroke="currentColor" y2="0"></line><text fill="currentColor" y="3" dy="0.71em">Jul</text><line class="grid-line" stroke="rgb(230,230,230)" x1="0" x2="0" y1="0" y2="-220"></line></g></g><path fill="none" stroke="rgb(180, 180, 180)" stroke-width="2" d="M53.928944618599786,268.30769230769226L57.07419017763846,265.9384615384615L60.21943573667711,262.2153846153846L63.36468129571578,257.30769230769226L66.50992685475444,251.72307692307695L69.65517241379311,242.4153846153846L73.24973876698014,233.61538461538464L75.94566353187042,232.93846153846155L82.23615464994775,229.04615384615386L94.8171368861024,227.01538461538462L101.10762800417973,229.72307692307692L141.99582027168236,226.5076923076923L151.43155694879835,227.18461538461537L189.17450365726228,228.7076923076923L403.05120167189136,208.06153846153845L406.19644723093,193L409.34169278996865,185.8923076923077L412.48693834900735,175.90769230769232L415.632183908046,168.2923076923077L418.77742946708463,153.56923076923076L421.92267502612333,151.03076923076924L425.06792058516197,139.18461538461537L428.21316614420067,133.09230769230768L437.64890282131665,122.0923076923077L443.939393939394,107.36923076923077L450.2298850574712,100.26153846153846L453.3751306165099,98.39999999999999L456.52037617554856,96.36923076923078"></path><g><circle cx="53.928944618599786" cy="268.30769230769226" r="4" fill="rgb(123,123,123)" stroke="rgb(255,255,255)" stroke-width="1"></circle><circle cx="57.07419017763846" cy="265.9384615384615" r="4" fill="rgb(123,123,123)" stroke="rgb(255,255,255)" stroke-width="1"></circle><circle cx="60.21943573667711" cy="262.2153846153846" r="4" fill="rgb(123,123,123)" stroke="rgb(255,255,255)" stroke-width="1"></circle><circle cx="63.36468129571578" cy="257.30769230769226" r="4" fill="rgb(123,123,123)" stroke="rgb(255,255,255)" stroke-width="1"></circle><circle cx="66.50992685475444" cy="251.72307692307695" r="4" fill="rgb(123,123,123)" stroke="rgb(255,255,255)" stroke-width="1"></circle><circle cx="69.65517241379311" cy="242.4153846153846" r="4" fill="rgb(123,123,123)" stroke="rgb(255,255,255)" stroke-width="1"></circle><circle cx="73.24973876698014" cy="233.61538461538464" r="4" fill="rgb(123,123,123)" stroke="rgb(255,255,255)" stroke-width="1"></circle><circle cx="75.94566353187042" cy="232.93846153846155" r="4" fill="rgb(123,123,123)" stroke="rgb(255,255,255)" stroke-width="1"></circle><circle cx="82.23615464994775" cy="229.04615384615386" r="4" fill="rgb(123,123,123)" stroke="rgb(255,255,255)" stroke-width="1"></circle><circle cx="94.8171368861024" cy="227.01538461538462" r="4" fill="rgb(123,123,123)" stroke="rgb(255,255,255)" stroke-width="1"></circle><circle cx="101.10762800417973" cy="229.72307692307692" r="4" fill="rgb(123,123,123)" stroke="rgb(255,255,255)" stroke-width="1"></circle><circle cx="141.99582027168236" cy="226.5076923076923" r="4" fill="rgb(123,123,123)" stroke="rgb(255,255,255)" stroke-width="1"></circle><circle cx="151.43155694879835" cy="227.18461538461537" r="4" fill="rgb(123,123,123)" stroke="rgb(255,255,255)" stroke-width="1"></circle><circle cx="189.17450365726228" cy="228.7076923076923" r="4" fill="rgb(123,123,123)" stroke="rgb(255,255,255)" stroke-width="1"></circle><circle cx="403.05120167189136" cy="208.06153846153845" r="4" fill="rgb(123,123,123)" stroke="rgb(255,255,255)" stroke-width="1"></circle><circle cx="406.19644723093" cy="193" r="4" fill="rgb(122,62,0)" stroke="rgb(255,255,255)" stroke-width="1"></circle><circle cx="409.34169278996865" cy="185.8923076923077" r="4" fill="rgb(122,62,0)" stroke="rgb(255,255,255)" stroke-width="1"></circle><circle cx="412.48693834900735" cy="175.90769230769232" r="4" fill="rgb(122,62,0)" stroke="rgb(255,255,255)" stroke-width="1"></circle><circle cx="415.632183908046" cy="168.2923076923077" r="4" fill="rgb(122,62,0)" stroke="rgb(255,255,255)" stroke-width="1"></circle><circle cx="418.77742946708463" cy="153.56923076923076" r="4" fill="rgb(122,62,0)" stroke="rgb(255,255,255)" stroke-width="1"></circle><circle cx="421.92267502612333" cy="151.03076923076924" r="4" fill="rgb(122,62,0)" stroke="rgb(255,255,255)" stroke-width="1"></circle><circle cx="425.06792058516197" cy="139.18461538461537" r="4" fill="rgb(122,62,0)" stroke="rgb(255,255,255)" stroke-width="1"></circle><circle cx="428.21316614420067" cy="133.09230769230768" r="4" fill="rgb(15,108,8)" stroke="rgb(255,255,255)" stroke-width="1"></circle><circle cx="437.64890282131665" cy="122.0923076923077" r="4" fill="rgb(15,108,8)" stroke="rgb(255,255,255)" stroke-width="1"></circle><circle cx="443.939393939394" cy="107.36923076923077" r="4" fill="rgb(15,108,8)" stroke="rgb(255,255,255)" stroke-width="1"></circle><circle cx="450.2298850574712" cy="100.26153846153846" r="4" fill="rgb(15,108,8)" stroke="rgb(255,255,255)" stroke-width="1"></circle><circle cx="453.3751306165099" cy="98.39999999999999" r="4" fill="rgb(15,108,8)" stroke="rgb(255,255,255)" stroke-width="1"></circle><circle cx="456.52037617554856" cy="96.36923076923078" r="4" fill="rgb(15,108,8)" stroke="rgb(255,255,255)" stroke-width="1"></circle></g></svg>