<svg xmlns="http://www.w3.org/2000/svg" width="500" height="300" viewBox="0 0 500 300"><rect x="0" y="0" width="500" height="300" fill="rgb(255,255,255)"></rect><text x="50" y="30" text-anchor="middle" font-size="20px">9級</text><text x="200" y="30" text-anchor="end" font-size="17px" fill="rgb(123,123,123)">Ishi_eenn</text><rect x="40" y="50" width="430" height="220" stroke="rgb(155,155,155)" fill="rgb(216,216,216)"></rect><rect x="40" y="93.99999999999999" width="430" height="176" fill="rgb(216,216,216)"></rect><rect x="40" y="50" width="430" height="43.999999999999986" fill="rgb(215,197,178)"></rect><g class="y-axis" transform="translate(40, 0)" fill="none" font-size="10" font-family="sans-serif" text-anchor="end"><path class="domain" stroke="rgb(155,155,155)" d="M0.5,270.5V50.5"></path><g class="tick" opacity="1" transform="translate(0,270.5)"><line stroke="currentColor" x2="0"></line><text fill="currentColor" x="-3" dy="0.32em">0</text><line class="y-grid-line" stroke="rgb(230,230,230)" x1="0" x2="430" y1="0" y2="0"></line></g><g class="tick" opacity="1" transform="translate(0,94.49999999999999)"><line stroke="currentColor" x2="0"></line><text fill="currentColor" x="-3" dy="0.32em">400</text><line class="y-grid-line" stroke="rgb(230,230,230)" x1="0" x2="430" y1="0" y2="0"></line></g></g><g class="x-axis" transform="translate(0,270)" fill="none" font-size="10" font-family="sans-serif" text-anchor="middle"><path class="domain" stroke="rgb(155,155,155)" d="M40.5,0.5H470.5"></path><g class="tick" opacity="1" transform="translate(108.71861571516267,0)"><line stroke="currentColor" y2="0"></line><text fill="currentColor" y="3" dy="0.71em">Jul</text><line class="grid-line" stroke="rgb(230,230,230)" x1="0" x2="0" y1="0" y2="-220"></line></g><g class="tick" opacity="1" transform="translate(182.3650245549417,0)"><line stroke="currentColor" y2="0"></line><text fill="currentColor" y="3" dy="0.71em">Sep</text><line class="grid-line" stroke="rgb(230,230,230)" x1="0" x2="0" y1="0" y2="-220"></line></g><g class="tick" opacity="1" transform="translate(254.82358809085326,0)"><line stroke="currentColor" y2="0"></line><text fill="currentColor" y="3" dy="0.71em">Nov</text><line class="grid-line" stroke="rgb(230,230,230)" x1="0" x2="0" y1="0" y2="-220"></line></g><g class="tick" opacity="1" transform="translate(327.28215162676486,0)"><line stroke="currentColor" y2="0"></line><text fill="currentColor" y="3" dy="0.71em">Jan/2023</text><line class="grid-line" stroke="rgb(230,230,230)" x1="0" x2="0" y1="0" y2="-220"></line></g><g class="tick" opacity="1" transform="translate(397.36502455494167,0)"><line stroke="currentColor" y2="0"></line><text fill="currentColor" y="3" dy="0.71em">Mar</text><line class="grid-line" stroke="rgb(230,230,230)" x1="0" x2="0" y1="0" y2="-220"></line></g><g class="tick" opacity="1" transform="translate(469.8235880908533,0)"><line stroke="currentColor" y2="0"></line><text fill="currentColor" y="3" dy="0.71em">May</text><line class="grid-line" stroke="rgb(230,230,230)" x1="0" x2="0" y1="0" y2="-220"></line></g></g><path fill="none" stroke="rgb(180, 180, 180)" stroke-width="2" d="M76.82320441988949,265.6L85.13812154696132,259.43999999999994L93.45303867403315,249.76L101.76795580110496,237L110.0828729281768,222.48000000000002L118.39779005524862,198.28L127.90055248618785,175.4L135.02762430939225,173.64000000000001L151.6574585635359,163.51999999999998L184.91712707182322,158.24L201.54696132596686,165.28000000000003L309.64088397790056,156.92L334.585635359116,158.68L434.3646408839779,162.64000000000001"></path><g><circle cx="76.82320441988949" cy="265.6" r="4" fill="rgb(123,123,123)" stroke="rgb(255,255,255)" stroke-width="1"></circle><circle cx="85.13812154696132" cy="259.43999999999994" r="4" fill="rgb(123,123,123)" stroke="rgb(255,255,255)" stroke-width="1"></circle><circle cx="93.45303867403315" cy="249.76" r="4" fill="rgb(123,123,123)" stroke="rgb(255,255,255)" stroke-width="1"></circle><circle cx="101.76795580110496" cy="237" r="4" fill="rgb(123,123,123)" stroke="rgb(255,255,255)" stroke-width="1"></circle><circle cx="110.0828729281768" cy="222.48000000000002" r="4" fill="rgb(123,123,123)" stroke="rgb(255,255,255)" stroke-width="1"></circle><circle cx="118.39779005524862" cy="198.28" r="4" fill="rgb(123,123,123)" stroke="rgb(255,255,255)" stroke-width="1"></circle><circle cx="127.90055248618785" cy="175.4" r="4" fill="rgb(123,123,123)" stroke="rgb(255,255,255)" stroke-width="1"></circle><circle cx="135.02762430939225" cy="173.64000000000001" r="4" fill="rgb(123,123,123)" stroke="rgb(255,255,255)" stroke-width="1"></circle><circle cx="151.6574585635359" cy="163.51999999999998" r="4" fill="rgb(123,123,123)" stroke="rgb(255,255,255)" stroke-width="1"></circle><circle cx="184.91712707182322" cy="158.24" r="4" fill="rgb(123,123,123)" stroke="rgb(255,255,255)" stroke-width="1"></circle><circle cx="201.54696132596686" cy="165.28000000000003" r="4" fill="rgb(123,123,123)" stroke="rgb(255,255,255)" stroke-width="1"></circle><circle cx="309.64088397790056" cy="156.92" r="4" fill="rgb(123,123,123)" stroke="rgb(255,255,255)" stroke-width="1"></circle><circle cx="334.585635359116" cy="158.68" r="4" fill="rgb(123,123,123)" stroke="rgb(255,255,255)" stroke-width="1"></circle><circle cx="434.3646408839779" cy="162.64000000000001" r="4" fill="rgb(123,123,123)" stroke="rgb(255,255,255)" stroke-width="1"></circle></g></svg>