<svg xmlns="http://www.w3.org/2000/svg" width="500" height="300" viewBox="0 0 500 300"><rect x="0" y="0" width="500" height="300" fill="rgb(255,255,255)"></rect><text x="50" y="30" text-anchor="middle" font-size="20px">6級</text><text x="200" y="30" text-anchor="end" font-size="17px" fill="rgb(15,108,8)">Ishi_eenn</text><rect x="40" y="50" width="430" height="220" stroke="rgb(155,155,155)" fill="rgb(216,216,216)"></rect><rect x="40" y="202.3076923076923" width="430" height="67.69230769230771" fill="rgb(216,216,216)"></rect><rect x="40" y="134.6153846153846" width="430" height="67.69230769230768" fill="rgb(215,197,178)"></rect><rect x="40" y="66.9230769230769" width="430" height="67.69230769230771" fill="rgb(188,216,184)"></rect><rect x="40" y="50" width="430" height="16.923076923076906" fill="rgb(196,236,236)"></rect><g class="y-axis" transform="translate(40, 0)" fill="none" font-size="10" font-family="sans-serif" text-anchor="end"><path class="domain" stroke="rgb(155,155,155)" d="M0.5,270.5V50.5"></path><g class="tick" opacity="1" transform="translate(0,270.5)"><line stroke="currentColor" x2="0"></line><text fill="currentColor" x="-3" dy="0.32em">0</text><line class="y-grid-line" stroke="rgb(230,230,230)" x1="0" x2="430" y1="0" y2="0"></line></g><g class="tick" opacity="1" transform="translate(0,202.8076923076923)"><line stroke="currentColor" x2="0"></line><text fill="currentColor" x="-3" dy="0.32em">400</text><line class="y-grid-line" stroke="rgb(230,230,230)" x1="0" x2="430" y1="0" y2="0"></line></g><g class="tick" opacity="1" transform="translate(0,135.1153846153846)"><line stroke="currentColor" x2="0"></line><text fill="currentColor" x="-3" dy="0.32em">800</text><line class="y-grid-line" stroke="rgb(230,230,230)" x1="0" x2="430" y1="0" y2="0"></line></g><g class="tick" opacity="1" transform="translate(0,67.4230769230769)"><line stroke="currentColor" x2="0"></line><text fill="currentColor" x="-3" dy="0.32em">1,200</text><line class="y-grid-line" stroke="rgb(230,230,230)" x1="0" x2="430" y1="0" y2="0"></line></g></g><g class="x-axis" transform="translate(0,270)" fill="none" font-size="10" font-family="sans-serif" text-anchor="middle"><path class="domain" stroke="rgb(155,155,155)" d="M40.5,0.5H470.5"></path><g class="tick" opacity="1" transform="translate(67.05391278375149,0)"><line stroke="currentColor" y2="0"></line><text fill="currentColor" y="3" dy="0.71em">Jul</text><line class="grid-line" stroke="rgb(230,230,230)" x1="0" x2="0" y1="0" y2="-220"></line></g><g class="tick" opacity="1" transform="translate(152.1291816009558,0)"><line stroke="currentColor" y2="0"></line><text fill="currentColor" y="3" dy="0.71em">Jan/2023</text><line class="grid-line" stroke="rgb(230,230,230)" x1="0" x2="0" y1="0" y2="-220"></line></g><g class="tick" opacity="1" transform="translate(235.81735364396656,0)"><line stroke="currentColor" y2="0"></line><text fill="currentColor" y="3" dy="0.71em">Jul</text><line class="grid-line" stroke="rgb(230,230,230)" x1="0" x2="0" y1="0" y2="-220"></line></g><g class="tick" opacity="1" transform="translate(320.89262246117084,0)"><line stroke="currentColor" y2="0"></line><text fill="currentColor" y="3" dy="0.71em">Jan/2024</text><line class="grid-line" stroke="rgb(230,230,230)" x1="0" x2="0" y1="0" y2="-220"></line></g><g class="tick" opacity="1" transform="translate(405.0431600955795,0)"><line stroke="currentColor" y2="0"></line><text fill="currentColor" y="3" dy="0.71em">Jul</text><line class="grid-line" stroke="rgb(230,230,230)" x1="0" x2="0" y1="0" y2="-220"></line></g></g><path fill="none" stroke="rgb(180, 180, 180)" stroke-width="2" d="M54.33333333333333,268.30769230769226L57.56989247311829,265.9384615384615L60.806451612903224,262.2153846153846L64.04301075268818,257.30769230769226L67.27956989247312,251.72307692307695L70.51612903225806,242.4153846153846L74.21505376344086,233.61538461538464L76.98924731182797,232.93846153846155L83.46236559139786,229.04615384615386L96.40860215053763,227.01538461538462L102.88172043010752,229.72307692307692L144.9569892473118,226.5076923076923L154.66666666666666,227.18461538461537L193.50537634408602,228.7076923076923L413.59139784946234,208.06153846153845L416.8279569892473,193L420.06451612903226,185.8923076923077L423.3010752688172,175.90769230769232L426.5376344086022,168.2923076923077L429.77419354838713,153.56923076923076L433.01075268817203,151.03076923076924L436.247311827957,139.18461538461537L439.48387096774195,133.09230769230768L449.19354838709677,122.0923076923077L455.66666666666663,107.36923076923077"></path><g><circle cx="54.33333333333333" cy="268.30769230769226" r="4" fill="rgb(123,123,123)" stroke="rgb(255,255,255)" stroke-width="1"></circle><circle cx="57.56989247311829" cy="265.9384615384615" r="4" fill="rgb(123,123,123)" stroke="rgb(255,255,255)" stroke-width="1"></circle><circle cx="60.806451612903224" cy="262.2153846153846" r="4" fill="rgb(123,123,123)" stroke="rgb(255,255,255)" stroke-width="1"></circle><circle cx="64.04301075268818" cy="257.30769230769226" r="4" fill="rgb(123,123,123)" stroke="rgb(255,255,255)" stroke-width="1"></circle><circle cx="67.27956989247312" cy="251.72307692307695" r="4" fill="rgb(123,123,123)" stroke="rgb(255,255,255)" stroke-width="1"></circle><circle cx="70.51612903225806" cy="242.4153846153846" r="4" fill="rgb(123,123,123)" stroke="rgb(255,255,255)" stroke-width="1"></circle><circle cx="74.21505376344086" cy="233.61538461538464" r="4" fill="rgb(123,123,123)" stroke="rgb(255,255,255)" stroke-width="1"></circle><circle cx="76.98924731182797" cy="232.93846153846155" r="4" fill="rgb(123,123,123)" stroke="rgb(255,255,255)" stroke-width="1"></circle><circle cx="83.46236559139786" cy="229.04615384615386" r="4" fill="rgb(123,123,123)" stroke="rgb(255,255,255)" stroke-width="1"></circle><circle cx="96.40860215053763" cy="227.01538461538462" r="4" fill="rgb(123,123,123)" stroke="rgb(255,255,255)" stroke-width="1"></circle><circle cx="102.88172043010752" cy="229.72307692307692" r="4" fill="rgb(123,123,123)" stroke="rgb(255,255,255)" stroke-width="1"></circle><circle cx="144.9569892473118" cy="226.5076923076923" r="4" fill="rgb(123,123,123)" stroke="rgb(255,255,255)" stroke-width="1"></circle><circle cx="154.66666666666666" cy="227.18461538461537" r="4" fill="rgb(123,123,123)" stroke="rgb(255,255,255)" stroke-width="1"></circle><circle cx="193.50537634408602" cy="228.7076923076923" r="4" fill="rgb(123,123,123)" stroke="rgb(255,255,255)" stroke-width="1"></circle><circle cx="413.59139784946234" cy="208.06153846153845" r="4" fill="rgb(123,123,123)" stroke="rgb(255,255,255)" stroke-width="1"></circle><circle cx="416.8279569892473" cy="193" r="4" fill="rgb(122,62,0)" stroke="rgb(255,255,255)" stroke-width="1"></circle><circle cx="420.06451612903226" cy="185.8923076923077" r="4" fill="rgb(122,62,0)" stroke="rgb(255,255,255)" stroke-width="1"></circle><circle cx="423.3010752688172" cy="175.90769230769232" r="4" fill="rgb(122,62,0)" stroke="rgb(255,255,255)" stroke-width="1"></circle><circle cx="426.5376344086022" cy="168.2923076923077" r="4" fill="rgb(122,62,0)" stroke="rgb(255,255,255)" stroke-width="1"></circle><circle cx="429.77419354838713" cy="153.56923076923076" r="4" fill="rgb(122,62,0)" stroke="rgb(255,255,255)" stroke-width="1"></circle><circle cx="433.01075268817203" cy="151.03076923076924" r="4" fill="rgb(122,62,0)" stroke="rgb(255,255,255)" stroke-width="1"></circle><circle cx="436.247311827957" cy="139.18461538461537" r="4" fill="rgb(122,62,0)" stroke="rgb(255,255,255)" stroke-width="1"></circle><circle cx="439.48387096774195" cy="133.09230769230768" r="4" fill="rgb(15,108,8)" stroke="rgb(255,255,255)" stroke-width="1"></circle><circle cx="449.19354838709677" cy="122.0923076923077" r="4" fill="rgb(15,108,8)" stroke="rgb(255,255,255)" stroke-width="1"></circle><circle cx="455.66666666666663" cy="107.36923076923077" r="4" fill="rgb(15,108,8)" stroke="rgb(255,255,255)" stroke-width="1"></circle></g></svg>