<svg xmlns="http://www.w3.org/2000/svg" width="500" height="300" viewBox="0 0 500 300"><rect x="0" y="0" width="500" height="300" fill="rgb(255,255,255)"></rect><text x="50" y="30" text-anchor="middle" font-size="20px">6級</text><text x="200" y="30" text-anchor="end" font-size="17px" fill="rgb(15,108,8)">Ishi_eenn</text><rect x="40" y="50" width="430" height="220" stroke="rgb(155,155,155)" fill="rgb(216,216,216)"></rect><rect x="40" y="202.3076923076923" width="430" height="67.69230769230771" fill="rgb(216,216,216)"></rect><rect x="40" y="134.6153846153846" width="430" height="67.69230769230768" fill="rgb(215,197,178)"></rect><rect x="40" y="66.9230769230769" width="430" height="67.69230769230771" fill="rgb(188,216,184)"></rect><rect x="40" y="50" width="430" height="16.923076923076906" fill="rgb(196,236,236)"></rect><g class="y-axis" transform="translate(40, 0)" fill="none" font-size="10" font-family="sans-serif" text-anchor="end"><path class="domain" stroke="rgb(155,155,155)" d="M0.5,270.5V50.5"></path><g class="tick" opacity="1" transform="translate(0,270.5)"><line stroke="currentColor" x2="0"></line><text fill="currentColor" x="-3" dy="0.32em">0</text><line class="y-grid-line" stroke="rgb(230,230,230)" x1="0" x2="430" y1="0" y2="0"></line></g><g class="tick" opacity="1" transform="translate(0,202.8076923076923)"><line stroke="currentColor" x2="0"></line><text fill="currentColor" x="-3" dy="0.32em">400</text><line class="y-grid-line" stroke="rgb(230,230,230)" x1="0" x2="430" y1="0" y2="0"></line></g><g class="tick" opacity="1" transform="translate(0,135.1153846153846)"><line stroke="currentColor" x2="0"></line><text fill="currentColor" x="-3" dy="0.32em">800</text><line class="y-grid-line" stroke="rgb(230,230,230)" x1="0" x2="430" y1="0" y2="0"></line></g><g class="tick" opacity="1" transform="translate(0,67.4230769230769)"><line stroke="currentColor" x2="0"></line><text fill="currentColor" x="-3" dy="0.32em">1,200</text><line class="y-grid-line" stroke="rgb(230,230,230)" x1="0" x2="430" y1="0" y2="0"></line></g></g><g class="x-axis" transform="translate(0,270)" fill="none" font-size="10" font-family="sans-serif" text-anchor="middle"><path class="domain" stroke="rgb(155,155,155)" d="M40.5,0.5H470.5"></path><g class="tick" opacity="1" transform="translate(67.45975861232412,0)"><line stroke="currentColor" y2="0"></line><text fill="currentColor" y="3" dy="0.71em">Jul</text><line class="grid-line" stroke="rgb(230,230,230)" x1="0" x2="0" y1="0" y2="-220"></line></g><g class="tick" opacity="1" transform="translate(153.83530446385248,0)"><line stroke="currentColor" y2="0"></line><text fill="currentColor" y="3" dy="0.71em">Jan/2023</text><line class="grid-line" stroke="rgb(230,230,230)" x1="0" x2="0" y1="0" y2="-220"></line></g><g class="tick" opacity="1" transform="translate(238.80255337214945,0)"><line stroke="currentColor" y2="0"></line><text fill="currentColor" y="3" dy="0.71em">Jul</text><line class="grid-line" stroke="rgb(230,230,230)" x1="0" x2="0" y1="0" y2="-220"></line></g><g class="tick" opacity="1" transform="translate(325.1780992236778,0)"><line stroke="currentColor" y2="0"></line><text fill="currentColor" y="3" dy="0.71em">Jan/2024</text><line class="grid-line" stroke="rgb(230,230,230)" x1="0" x2="0" y1="0" y2="-220"></line></g><g class="tick" opacity="1" transform="translate(410.6147804463852,0)"><line stroke="currentColor" y2="0"></line><text fill="currentColor" y="3" dy="0.71em">Jul</text><line class="grid-line" stroke="rgb(230,230,230)" x1="0" x2="0" y1="0" y2="-220"></line></g></g><path fill="none" stroke="rgb(180, 180, 180)" stroke-width="2" d="M54.55240174672489,268.30769230769226L57.83842794759825,265.9384615384615L61.124454148471614,262.2153846153846L64.41048034934497,257.30769230769226L67.69650655021834,251.72307692307695L70.9825327510917,242.4153846153846L74.73799126637553,233.61538461538464L77.55458515283843,232.93846153846155L84.12663755458516,229.04615384615386L97.2707423580786,227.01538461538462L103.84279475982532,229.72307692307692L146.56113537117903,226.5076923076923L156.41921397379915,227.18461538461537L195.85152838427948,228.7076923076923L419.3013100436681,208.06153846153845L422.5873362445415,193L425.87336244541484,185.8923076923077L429.1593886462882,175.90769230769232L432.44541484716154,168.2923076923077L435.7314410480349,153.56923076923076L439.0174672489083,151.03076923076924L442.3034934497817,139.18461538461537L445.589519650655,133.09230769230768L455.4475982532751,122.0923076923077"></path><g><circle cx="54.55240174672489" cy="268.30769230769226" r="4" fill="rgb(123,123,123)" stroke="rgb(255,255,255)" stroke-width="1"></circle><circle cx="57.83842794759825" cy="265.9384615384615" r="4" fill="rgb(123,123,123)" stroke="rgb(255,255,255)" stroke-width="1"></circle><circle cx="61.124454148471614" cy="262.2153846153846" r="4" fill="rgb(123,123,123)" stroke="rgb(255,255,255)" stroke-width="1"></circle><circle cx="64.41048034934497" cy="257.30769230769226" r="4" fill="rgb(123,123,123)" stroke="rgb(255,255,255)" stroke-width="1"></circle><circle cx="67.69650655021834" cy="251.72307692307695" r="4" fill="rgb(123,123,123)" stroke="rgb(255,255,255)" stroke-width="1"></circle><circle cx="70.9825327510917" cy="242.4153846153846" r="4" fill="rgb(123,123,123)" stroke="rgb(255,255,255)" stroke-width="1"></circle><circle cx="74.73799126637553" cy="233.61538461538464" r="4" fill="rgb(123,123,123)" stroke="rgb(255,255,255)" stroke-width="1"></circle><circle cx="77.55458515283843" cy="232.93846153846155" r="4" fill="rgb(123,123,123)" stroke="rgb(255,255,255)" stroke-width="1"></circle><circle cx="84.12663755458516" cy="229.04615384615386" r="4" fill="rgb(123,123,123)" stroke="rgb(255,255,255)" stroke-width="1"></circle><circle cx="97.2707423580786" cy="227.01538461538462" r="4" fill="rgb(123,123,123)" stroke="rgb(255,255,255)" stroke-width="1"></circle><circle cx="103.84279475982532" cy="229.72307692307692" r="4" fill="rgb(123,123,123)" stroke="rgb(255,255,255)" stroke-width="1"></circle><circle cx="146.56113537117903" cy="226.5076923076923" r="4" fill="rgb(123,123,123)" stroke="rgb(255,255,255)" stroke-width="1"></circle><circle cx="156.41921397379915" cy="227.18461538461537" r="4" fill="rgb(123,123,123)" stroke="rgb(255,255,255)" stroke-width="1"></circle><circle cx="195.85152838427948" cy="228.7076923076923" r="4" fill="rgb(123,123,123)" stroke="rgb(255,255,255)" stroke-width="1"></circle><circle cx="419.3013100436681" cy="208.06153846153845" r="4" fill="rgb(123,123,123)" stroke="rgb(255,255,255)" stroke-width="1"></circle><circle cx="422.5873362445415" cy="193" r="4" fill="rgb(122,62,0)" stroke="rgb(255,255,255)" stroke-width="1"></circle><circle cx="425.87336244541484" cy="185.8923076923077" r="4" fill="rgb(122,62,0)" stroke="rgb(255,255,255)" stroke-width="1"></circle><circle cx="429.1593886462882" cy="175.90769230769232" r="4" fill="rgb(122,62,0)" stroke="rgb(255,255,255)" stroke-width="1"></circle><circle cx="432.44541484716154" cy="168.2923076923077" r="4" fill="rgb(122,62,0)" stroke="rgb(255,255,255)" stroke-width="1"></circle><circle cx="435.7314410480349" cy="153.56923076923076" r="4" fill="rgb(122,62,0)" stroke="rgb(255,255,255)" stroke-width="1"></circle><circle cx="439.0174672489083" cy="151.03076923076924" r="4" fill="rgb(122,62,0)" stroke="rgb(255,255,255)" stroke-width="1"></circle><circle cx="442.3034934497817" cy="139.18461538461537" r="4" fill="rgb(122,62,0)" stroke="rgb(255,255,255)" stroke-width="1"></circle><circle cx="445.589519650655" cy="133.09230769230768" r="4" fill="rgb(15,108,8)" stroke="rgb(255,255,255)" stroke-width="1"></circle><circle cx="455.4475982532751" cy="122.0923076923077" r="4" fill="rgb(15,108,8)" stroke="rgb(255,255,255)" stroke-width="1"></circle></g></svg>