<svg xmlns="http://www.w3.org/2000/svg" width="500" height="300" viewBox="0 0 500 300"><rect x="0" y="0" width="500" height="300" fill="rgb(255,255,255)"></rect><text x="50" y="30" text-anchor="middle" font-size="20px">7級</text><text x="200" y="30" text-anchor="end" font-size="17px" fill="rgb(122,62,0)">Ishi_eenn</text><rect x="40" y="50" width="430" height="220" stroke="rgb(155,155,155)" fill="rgb(216,216,216)"></rect><rect x="40" y="172.22222222222223" width="430" height="97.77777777777777" fill="rgb(216,216,216)"></rect><rect x="40" y="74.44444444444446" width="430" height="97.77777777777777" fill="rgb(215,197,178)"></rect><rect x="40" y="50" width="430" height="24.444444444444457" fill="rgb(188,216,184)"></rect><g class="y-axis" transform="translate(40, 0)" fill="none" font-size="10" font-family="sans-serif" text-anchor="end"><path class="domain" stroke="rgb(155,155,155)" d="M0.5,270.5V50.5"></path><g class="tick" opacity="1" transform="translate(0,270.5)"><line stroke="currentColor" x2="0"></line><text fill="currentColor" x="-3" dy="0.32em">0</text><line class="y-grid-line" stroke="rgb(230,230,230)" x1="0" x2="430" y1="0" y2="0"></line></g><g class="tick" opacity="1" transform="translate(0,172.72222222222223)"><line stroke="currentColor" x2="0"></line><text fill="currentColor" x="-3" dy="0.32em">400</text><line class="y-grid-line" stroke="rgb(230,230,230)" x1="0" x2="430" y1="0" y2="0"></line></g><g class="tick" opacity="1" transform="translate(0,74.94444444444446)"><line stroke="currentColor" x2="0"></line><text fill="currentColor" x="-3" dy="0.32em">800</text><line class="y-grid-line" stroke="rgb(230,230,230)" x1="0" x2="430" y1="0" y2="0"></line></g></g><g class="x-axis" transform="translate(0,270)" fill="none" font-size="10" font-family="sans-serif" text-anchor="middle"><path class="domain" stroke="rgb(155,155,155)" d="M40.5,0.5H470.5"></path><g class="tick" opacity="1" transform="translate(68.75530765319095,0)"><line stroke="currentColor" y2="0"></line><text fill="currentColor" y="3" dy="0.71em">Jul</text><line class="grid-line" stroke="rgb(230,230,230)" x1="0" x2="0" y1="0" y2="-220"></line></g><g class="tick" opacity="1" transform="translate(159.28162344266462,0)"><line stroke="currentColor" y2="0"></line><text fill="currentColor" y="3" dy="0.71em">Jan/2023</text><line class="grid-line" stroke="rgb(230,230,230)" x1="0" x2="0" y1="0" y2="-220"></line></g><g class="tick" opacity="1" transform="translate(248.33196669209255,0)"><line stroke="currentColor" y2="0"></line><text fill="currentColor" y="3" dy="0.71em">Jul</text><line class="grid-line" stroke="rgb(230,230,230)" x1="0" x2="0" y1="0" y2="-220"></line></g><g class="tick" opacity="1" transform="translate(338.8582824815663,0)"><line stroke="currentColor" y2="0"></line><text fill="currentColor" y="3" dy="0.71em">Jan/2024</text><line class="grid-line" stroke="rgb(230,230,230)" x1="0" x2="0" y1="0" y2="-220"></line></g><g class="tick" opacity="1" transform="translate(428.4006165776761,0)"><line stroke="currentColor" y2="0"></line><text fill="currentColor" y="3" dy="0.71em">Jul</text><line class="grid-line" stroke="rgb(230,230,230)" x1="0" x2="0" y1="0" y2="-220"></line></g></g><path fill="none" stroke="rgb(180, 180, 180)" stroke-width="2" d="M55.25171624713958,267.55555555555554L58.69565217391305,264.1333333333333L62.1395881006865,258.75555555555553L65.58352402745996,251.66666666666666L69.02745995423342,243.6L72.47139588100686,230.15555555555554L76.40732265446223,217.44444444444446L79.35926773455378,216.46666666666664L86.24713958810068,210.84444444444443L100.0228832951945,207.91111111111113L106.91075514874142,211.82222222222222L151.68192219679634,207.17777777777778L162.0137299771167,208.15555555555554L203.34096109839817,210.35555555555555L437.52860411899314,180.53333333333333L440.9725400457666,158.77777777777777L444.41647597254,148.51111111111112L447.86041189931353,134.0888888888889L451.304347826087,123.08888888888887L454.7482837528604,101.82222222222221"></path><g><circle cx="55.25171624713958" cy="267.55555555555554" r="4" fill="rgb(123,123,123)" stroke="rgb(255,255,255)" stroke-width="1"></circle><circle cx="58.69565217391305" cy="264.1333333333333" r="4" fill="rgb(123,123,123)" stroke="rgb(255,255,255)" stroke-width="1"></circle><circle cx="62.1395881006865" cy="258.75555555555553" r="4" fill="rgb(123,123,123)" stroke="rgb(255,255,255)" stroke-width="1"></circle><circle cx="65.58352402745996" cy="251.66666666666666" r="4" fill="rgb(123,123,123)" stroke="rgb(255,255,255)" stroke-width="1"></circle><circle cx="69.02745995423342" cy="243.6" r="4" fill="rgb(123,123,123)" stroke="rgb(255,255,255)" stroke-width="1"></circle><circle cx="72.47139588100686" cy="230.15555555555554" r="4" fill="rgb(123,123,123)" stroke="rgb(255,255,255)" stroke-width="1"></circle><circle cx="76.40732265446223" cy="217.44444444444446" r="4" fill="rgb(123,123,123)" stroke="rgb(255,255,255)" stroke-width="1"></circle><circle cx="79.35926773455378" cy="216.46666666666664" r="4" fill="rgb(123,123,123)" stroke="rgb(255,255,255)" stroke-width="1"></circle><circle cx="86.24713958810068" cy="210.84444444444443" r="4" fill="rgb(123,123,123)" stroke="rgb(255,255,255)" stroke-width="1"></circle><circle cx="100.0228832951945" cy="207.91111111111113" r="4" fill="rgb(123,123,123)" stroke="rgb(255,255,255)" stroke-width="1"></circle><circle cx="106.91075514874142" cy="211.82222222222222" r="4" fill="rgb(123,123,123)" stroke="rgb(255,255,255)" stroke-width="1"></circle><circle cx="151.68192219679634" cy="207.17777777777778" r="4" fill="rgb(123,123,123)" stroke="rgb(255,255,255)" stroke-width="1"></circle><circle cx="162.0137299771167" cy="208.15555555555554" r="4" fill="rgb(123,123,123)" stroke="rgb(255,255,255)" stroke-width="1"></circle><circle cx="203.34096109839817" cy="210.35555555555555" r="4" fill="rgb(123,123,123)" stroke="rgb(255,255,255)" stroke-width="1"></circle><circle cx="437.52860411899314" cy="180.53333333333333" r="4" fill="rgb(123,123,123)" stroke="rgb(255,255,255)" stroke-width="1"></circle><circle cx="440.9725400457666" cy="158.77777777777777" r="4" fill="rgb(122,62,0)" stroke="rgb(255,255,255)" stroke-width="1"></circle><circle cx="444.41647597254" cy="148.51111111111112" r="4" fill="rgb(122,62,0)" stroke="rgb(255,255,255)" stroke-width="1"></circle><circle cx="447.86041189931353" cy="134.0888888888889" r="4" fill="rgb(122,62,0)" stroke="rgb(255,255,255)" stroke-width="1"></circle><circle cx="451.304347826087" cy="123.08888888888887" r="4" fill="rgb(122,62,0)" stroke="rgb(255,255,255)" stroke-width="1"></circle><circle cx="454.7482837528604" cy="101.82222222222221" r="4" fill="rgb(122,62,0)" stroke="rgb(255,255,255)" stroke-width="1"></circle></g></svg>